<?xml version="1.0" encoding="UTF-8"?>
<svg id="Layer_2" xmlns="http://www.w3.org/2000/svg" version="1.1" viewBox="0 0 373.8 379">
  <!-- Generator: Adobe Illustrator 30.1.0, SVG Export Plug-In . SVG Version: 2.1.1 Build 136)  -->
  <defs>
    <style>
      .st0 {
        fill: #7f7f7f;
      }
    </style>
  </defs>
  <g id="Layer_1-2">
    <g>
      <path class="st0" d="M186.9,0c-.5.9-.9,1.7-1.4,2.6h2.9c-.5-.8-1-1.7-1.4-2.6h-.1Z"/>
      <path class="st0" d="M373.8,192.1c-58.1-37.9-58.1-83.6,0-189.6h0c-112.1,49.3-157.1,49.6-185.5,0h-2.9C157,52.1,112,51.8-.1,2.5H-.1C58,108.5,58,154.2-.1,192.1c28.6-3.2,58.7,5.7,86.2,22.5-19,2.2-45.5,7-82.1,12,48.4,6.7,79.3,13,98.2,13.2.3,18.9,6.6,49.8,13.2,98.2,5.8-41.6,11.2-70.3,12.8-89.5,34.6,35.7,58.5,83.6,58.5,130.4,0-46.8,24-94.7,58.5-130.4,1.6,19.2,7,47.9,12.8,89.5,6.7-48.4,13-79.3,13.2-98.2,18.9-.3,49.8-6.6,98.2-13.2-36.6-5.1-63.1-9.9-82.1-12,27.5-16.8,57.7-25.7,86.2-22.5h.3Z"/>
    </g>
  </g>
</svg>