<?xml version="1.0" encoding="UTF-8"?>
<svg id="Layer_2" xmlns="http://www.w3.org/2000/svg" version="1.1" viewBox="0 0 396.7 434.3">
  <!-- Generator: Adobe Illustrator 30.1.0, SVG Export Plug-In . SVG Version: 2.1.1 Build 136)  -->
  <defs>
    <style>
      .st0 {
        fill: #7f7f7f;
      }
    </style>
  </defs>
  <path class="st0" d="M394.8,309.4h0c-.1,0-.2-.1-.3-.2.1,0,.2.1.3.2Z"/>
  <path class="st0" d="M314.7,222.2c5.2-38.4,32.9-74.4,82-97.3-24,11.2-47,16.4-68.2,16.5,10.6-17.6,26.3-34.3,47.3-49-40.8,28.6-82.2,35.9-116.4,25.5C230.1,93.9,213.7,52.7,218.3-.1c-2.3,26.5-9.4,49.3-20.1,67.7-10.5-18.3-17.5-41-19.8-67.3,4.5,51.8-11.3,92.5-39.6,116.7-34.6,11.1-76.5,4-117.9-25,21.3,14.9,37.1,31.9,47.8,49.8-21.3,0-44.5-5.2-68.6-16.5,48.9,22.8,76.5,58.6,81.9,96.8-8.5,34.4-35.4,66-80,86.8,22.7-10.6,44.6-15.8,64.8-16.4-10.6,17.9-26.5,34.8-47.7,49.7,44-30.8,88.6-36.9,124.3-22.7,26.7,24.4,41.4,64.2,37,114.4,2.2-24.7,8.4-46.2,17.9-63.9,9.6,17.8,15.9,39.3,18.1,64.3-4.5-51.2,10.9-91.5,38.5-115.8,35.4-13.4,79.3-7.1,122.6,23.2-20.8-14.6-36.5-31.2-47.1-48.8,20,.6,41.6,5.9,64,16.3-44.6-20.9-71.4-52.5-79.8-87h.1Z"/>
  <path class="st0" d="M377.7,341.9s-.1,0-.2-.1c0,0,.1,0,.2.1h0Z"/>
</svg>