<?xml version="1.0" encoding="UTF-8"?>
<svg id="Layer_2" xmlns="http://www.w3.org/2000/svg" version="1.1" viewBox="0 0 514.2 489.3">
  <!-- Generator: Adobe Illustrator 30.1.0, SVG Export Plug-In . SVG Version: 2.1.1 Build 136)  -->
  <defs>
    <style>
      .st0 {
        fill: #7f7f7f;
      }
    </style>
  </defs>
  <g id="Layer_1-2">
    <path class="st0" d="M392.4,240.9c-12.2.3-29.7-4.3-50.9-12.9,37.5-39.4,103.3-90.3,172.6-129.9-118.6,67.7-126.2,14.8-14.1-98.1-60.1,60.5-146.5,125.9-223.4,173.3,13.1-13.8,30.4-39.8,59.3-78-39,29.5-65.2,46.9-78.8,60.1-13.6-13.2-39.8-30.6-78.8-60.1,28.9,38.2,46.2,64.2,59.3,78C160.7,125.9,74.3,60.5,14.2,0,126.3,112.9,118.7,165.8,0,98.2c69.3,39.5,135.1,90.5,172.6,129.9-21.2,8.5-38.7,13.2-50.9,12.9,60.8,1.7,52.8,53.9-13.3,98.7-23.1,14.6-60.6,38.6-108.4,69.1,118.7-75.8,186.8-32.4,126.5,80.5,31.2-58.4,73.1-103.7,110-125.9-12.9,14.1-30.1,39.6-58.2,76.8,39-29.5,65.2-46.9,78.8-60.1,13.6,13.2,39.8,30.6,78.8,60.1-28.1-37.1-45.2-62.7-58.2-76.8,36.8,22.1,78.8,67.4,110,125.9-60.3-112.9,7.8-156.3,126.5-80.5-47.8-30.5-85.3-54.5-108.4-69.2-66.1-44.8-74.1-97-13.3-98.7h-.1Z"/>
  </g>
</svg>