<?xml version="1.0" encoding="UTF-8"?>
<svg id="Layer_2" xmlns="http://www.w3.org/2000/svg" version="1.1" viewBox="0 0 323.8 323.8">
  <!-- Generator: Adobe Illustrator 30.1.0, SVG Export Plug-In . SVG Version: 2.1.1 Build 136)  -->
  <defs>
    <style>
      .st0 {
        fill: #f4f4f4;
      }
    </style>
  </defs>
  <path class="st0" d="M0,0v323.8h323.8V0H0ZM316.8,316.8H7V7h309.8v309.8Z"/>
  <path class="st0" d="M105.8,257.2c2.4-35.1,5-54.8,17.5-72.2,31.1,8.2,34.6,57.3,38.6,118.5,3.8-62.8,7.2-113.9,34.8-154.7,15.4,7.2,18.2,32.9,21.3,80.2,5.4-89.1,9.9-110.1,84.1-156.4-74.2,33.6-78.6,30.8-84.1-52.4-3.5,57.3-6.6,80.8-28.1,102.6-21.5,1.3-24.6-19-28.1-72.5-3.5,57.3-6.6,80.9-28.1,102.7-21.5,1.3-24.6-19-28.1-72.5-5.5,89.1-9.9,96.6-84.1,142.8,74.2-33.6,79.3-32.8,84.1,33.8h.2Z"/>
</svg>